<?xml version="1.0" standalone="no"?>
<!DOCTYPE svg PUBLIC "-//W3C//DTD SVG 20010904//EN"
 "http://www.w3.org/TR/2001/REC-SVG-20010904/DTD/svg10.dtd">
<svg version="1.0" xmlns="http://www.w3.org/2000/svg"
 width="1042.000000pt" height="1042.000000pt" viewBox="0 0 1042.000000 1042.000000"
 preserveAspectRatio="xMidYMid meet">
<metadata>
Created by potrace 1.14, written by Peter Selinger 2001-2017
</metadata>
<g transform="translate(0.000000,1042.000000) scale(0.100000,-0.100000)"
fill="#000000" stroke="none">
<path d="M6260 8069 c-270 -11 -775 -29 -836 -29 l-54 0 2 -3012 3 -3013 660
-3 c734 -3 1352 10 1610 33 485 44 817 136 1100 306 378 227 656 619 751 1059
26 119 27 419 1 540 -55 261 -168 476 -351 668 -138 145 -277 240 -477 329
-139 61 -434 153 -490 153 -43 0 -23 19 44 41 110 37 301 133 411 207 485 325
701 883 564 1457 -88 371 -346 708 -703 921 -481 286 -1157 390 -2235 343z
m631 -299 c476 -46 794 -180 1054 -444 199 -201 302 -399 341 -656 62 -413
-110 -861 -418 -1092 -234 -175 -485 -249 -953 -279 -294 -18 -824 3 -1062 43
l-73 12 0 1166 0 1167 93 21 c218 50 406 69 688 71 125 0 273 -4 330 -9z m144
-2814 c473 -66 831 -218 1075 -456 185 -180 314 -443 355 -725 93 -638 -310
-1192 -995 -1365 -420 -107 -933 -103 -1528 11 l-162 31 2 1247 3 1246 60 8
c227 29 988 32 1190 3z"/>
<path d="M4750 7889 c-58 -84 -163 -236 -234 -338 -136 -196 -620 -919 -772
-1154 -49 -75 -126 -195 -172 -265 -46 -70 -162 -251 -258 -402 -97 -151 -249
-390 -339 -530 -90 -140 -198 -309 -240 -375 -42 -66 -113 -177 -158 -247 -45
-71 -125 -194 -177 -275 -147 -230 -649 -993 -660 -1003 -3 -3 -28 -39 -55
-80 -49 -73 -242 -354 -369 -535 -34 -50 -87 -114 -117 -142 -106 -100 -245
-215 -294 -244 -61 -36 -208 -84 -330 -107 l-90 -18 -3 -82 -3 -82 961 0 960
0 0 80 0 79 -33 5 c-17 3 -77 10 -132 16 -128 14 -285 53 -354 88 -94 47 -201
191 -174 235 4 6 77 113 162 237 206 298 661 984 893 1345 36 55 97 150 136
210 39 61 154 241 255 400 l185 290 791 3 792 2 -4 -1107 c-5 -1119 -6 -1161
-43 -1318 -35 -146 -119 -252 -255 -321 -106 -53 -171 -65 -387 -71 l-193 -6
3 -81 3 -81 620 0 620 0 3 3008 2 3007 -92 0 c-51 0 -149 3 -218 6 l-125 5
-105 -152z m156 -546 c5 -10 10 -476 12 -1035 l3 -1018 -697 0 -696 0 14 23
c12 18 123 192 228 357 25 39 96 149 239 370 192 298 621 943 740 1115 35 50
79 116 99 147 21 32 40 57 43 58 4 0 11 -8 15 -17z"/>
</g>
</svg>
